# xmcd CD database file
#
# Track frame offsets:
#	150
#	14374
#	28660
#	42866
#	57233
#	71658
#	86068
#	100477
#	114896
#	129601
#	144254
#	159163
#	174074
#	189024
#	205325
#	220487
#
# Disc length: 3141 seconds
#
# Revision: 1
# Processed by: cddbd v1.5.1PL0 Copyright (c) Steve Scherf et al.
# Submitted via: CDex 1.51
#
DISCID=d30c4310
DTITLE=Benny Goodman - just jazz volume 4
DYEAR=1900
DGENRE=Jazz
TTITLE0=More Than You Now
TTITLE1=Chloe
TTITLE2=Pop-Corn Man
TTITLE3=Swingtime In The Rockies
TTITLE4=All My Life
TTITLE5=Roll'Em
TTITLE6=Organ Grinder's Swing
TTITLE7=Who?
TTITLE8=Smoke Dreams
TTITLE9=You Took The Words Right Out Of My Heart
TTITLE10=Down South Camp Meeting
TTITLE11=Sweet Sue - Just You
TTITLE12=You're Giving Me A Song And A Dance
TTITLE13=Love Me Or Leave Me
TTITLE14=St Louis Blues
TTITLE15=Liza
EXTD=
EXTT0=
EXTT1=
EXTT2=
EXTT3=
EXTT4=
EXTT5=
EXTT6=
EXTT7=
EXTT8=
EXTT9=
EXTT10=
EXTT11=
EXTT12=
EXTT13=
EXTT14=
EXTT15=
PLAYORDER=
